<svg xmlns="http://www.w3.org/2000/svg" xmlns:xlink="http://www.w3.org/1999/xlink" width="1020" height="164"><defs><linearGradient id="a"><stop offset="0"/><stop offset=".33" stop-color="#222"/><stop offset=".66" stop-color="#444"/><stop offset="1" stop-color="#777"/></linearGradient><linearGradient xlink:href="#a" id="b" x1="415.177" y1="38.608" x2="414.748" y2="-125.051" gradientUnits="userSpaceOnUse" gradientTransform="translate(6.317 125.51)"/></defs><path d="M0 116.5V69h34v-5h12v5h7v-3.786l1.5-.576 1.5-.575V69h8V53h24V39h2v18.14l2.25-.32 2.25-.32v-8l2.193-.312 2.192-.312.308 4.812.307 4.812 3.75.31 3.75.31V69h4v-2h6v-4.69l2-1.81 2-1.81V46.341l2.233.08 2.233.079.017-1.207.017-1.207 2-1.511 2-1.511 4.75-.032L139 41v4h5l.185 2.25.184 2.25.217 2 .217 2 .098 7.75L145 69h2V59h5V30h52v39h8V56h3v-5h3V37.93l1.615-2.465L221.23 33H260v11h12V14h43v18h8V19h8v15h12v35h7V49h10v-8.626l3-2.874 3-2.874V15.272l3.75.114 3.75.114.295-2.525.294-2.526 4.206-2.227 4.205-2.228 6.75.003L396 6v7h9v45h4V36h12v33h10l.171-7.25.171-7.25.093-2 .092-2 3.236-.313 3.237-.313V42h3.86l.32-2.25.32-2.25 2.25-.32 2.25-.319v4.14h5v-3h5.755L459 39.5l1.245 1.5H463v28h5.836l1.582-.608 1.582-.607v-8.54L473.5 58l1.5-1.244V49h3v-3h3v-2h3v4h3v9h7v-6h3v13h8V39.208l13-.148 13-.147V57.14l2.25-.32 2.25-.32v-8l2.193-.312 2.192-.312.308 4.812.307 4.812 3.75.31 3.75.311v10.88h4v-2h6V62.31l2-1.81 2-1.81V46.342l2.233.079 2.233.08.017-1.208.017-1.206 2-1.512 2-1.511 4.75-.032L580 41v4h5l.185 2.25.184 2.25.217 2 .217 2 .098 7.75L586 69h2V59h5V40.25l-.001-18.75 5 .347 5 .346V8h6V2.4l1.2-1.2 1.2-1.2h6.6v6h9V2H636.652L639 4.5l2.349 2.5H645v45h3v17h5V56h3v-5h3V37.689l2.5-3.278 2.5-3.278V19h6v-4h3.767l.523-2 .523-2H678v7h5v15h13V22h5v22h12V2h43v30h8V19h8v15h12v35h7V49h10v-8.626l3-2.874 3-2.874V15.272l3.75.114 3.75.114.295-2.525.294-2.526 4.206-2.227 4.205-2.228 6.75.003L837 6v7h9v45h4V36h12v33h11.042l-.51-7-.51-7H879v-8h3.86l.32-2.25.32-2.25 2.25-.32 2.25-.319v4.14h5v-3h5.755L900 44.5l1.245 1.5H904v23h9l.032-2.25.032-2.25 1.468-1.942L916 60.62V54h3v-3h3v-2h3v4h3v9h7v-5.786l1.5-.575 1.5-.576V69h8V44h26v18.14l2.19-.32 2.189-.32.06-4 .061-4 2.25-.32 2.25-.319v10.08l3.75-.22 3.75-.22.313 3.25.314 3.25H1020v95H0v-47.5zm177-79V35h-3v5h3zm441 0V35h-3v5h3zm-312-8V27h-3v5h3zm441 0V27h-3v5h3zm-352-10V17h-3v5h3zm441 0V17h-3v5h3zm-197-3V12h-3v9h3zm-16-.5v-4h-3v8h3zm108-5.5V8h-3v5h3z" fill="url(#b)"/></svg>